<svg id="Capa_1" data-name="Capa 1" xmlns="http://www.w3.org/2000/svg" viewBox="0 0 1654.55 909.81"><defs><style>.cls-1{fill:#f2f2f2;}.cls-2{fill:#ddd;}.cls-3{fill:#d6d6d6;}.cls-4{fill:#333;}.cls-5{fill:#262626;}.cls-6{fill:#161616;}.cls-18,.cls-7{fill:#c4c4c4;}.cls-14,.cls-8{fill:#fff;}.cls-9{fill:#e8e8e8;}.cls-10,.cls-16,.cls-32{fill:none;}.cls-10,.cls-18{stroke:#c4c4c4;}.cls-10,.cls-16,.cls-18,.cls-24,.cls-25,.cls-26,.cls-27,.cls-29,.cls-30,.cls-32{stroke-miterlimit:10;}.cls-11{fill:#840b4d;}.cls-12{fill:#820c4c;}.cls-13{fill:#9c0c54;}.cls-14{font-size:8.99px;font-family:MyriadPro-Regular, Myriad Pro;}.cls-15{letter-spacing:0.01em;}.cls-16{stroke:#ddd;stroke-width:3px;}.cls-17{fill:#eaeaea;}.cls-19{font-size:53px;}.cls-19,.cls-20{fill:#969696;}.cls-19,.cls-20,.cls-34,.cls-37{font-family:Gotham-Light, Gotham;}.cls-20{font-size:30px;}.cls-21,.cls-26{letter-spacing:-0.02em;}.cls-22{letter-spacing:-0.01em;}.cls-23{letter-spacing:-0.03em;}.cls-24{stroke:#aaa;}.cls-25,.cls-26,.cls-27,.cls-29,.cls-30{stroke:#969696;}.cls-25,.cls-26,.cls-29,.cls-30,.cls-32{stroke-width:2px;}.cls-28{letter-spacing:-0.01em;}.cls-29{letter-spacing:-0.03em;}.cls-30{letter-spacing:-0.02em;}.cls-31{letter-spacing:-0.02em;}.cls-32{stroke:#0a0a0a;}.cls-33{fill:#0a0a0a;}.cls-34{font-size:23px;}.cls-35{letter-spacing:-0.09em;}.cls-36{letter-spacing:-0.02em;}.cls-37{font-size:20px;}.cls-38{letter-spacing:-0.02em;}.cls-39{letter-spacing:-0.02em;}.cls-40{letter-spacing:-0.03em;}.cls-41{letter-spacing:-0.02em;}.cls-42{letter-spacing:-0.01em;}.cls-43{letter-spacing:0.06em;}.cls-44{letter-spacing:-0.09em;}.cls-45{letter-spacing:-0.03em;}</style></defs><title>MisExp1920</title><path class="cls-1" d="M245.57,719.43V280.2a.81.81,0,0,1,.81-.81H904.81v440Z" transform="translate(-45 -104.75)"/><path class="cls-2" d="M252.87,272.35l-7.32,7.33a.09.09,0,0,0,.06.15H896.46l.06,0,8-8a.09.09,0,0,0-.06-.15H254.48A2.26,2.26,0,0,0,252.87,272.35Z" transform="translate(-45 -104.75)"/><polygon class="cls-3" points="867.78 606.98 867.78 166.94 859.64 175.09 859.64 615.13 867.78 606.98"/><path class="cls-4" d="M261.79,263.29v48.26a.32.32,0,0,0,.32.32H928.24a.92.92,0,0,0,.92-.92V263H262.1A.32.32,0,0,0,261.79,263.29Z" transform="translate(-45 -104.75)"/><path class="cls-5" d="M270.58,255.39H937.19l-8.14,8.15H261.68l7.59-7.6A1.86,1.86,0,0,1,270.58,255.39Z" transform="translate(-45 -104.75)"/><path class="cls-6" d="M937.19,302.44V256a.24.24,0,0,0-.4-.17l-7.74,7.75v48.28a.25.25,0,0,0,.43.18l6.4-6.41A4.47,4.47,0,0,0,937.19,302.44Z" transform="translate(-45 -104.75)"/><path class="cls-2" d="M936.21,328.73H809.1a5.13,5.13,0,0,0-3.63,1.5l-6,6.05a.35.35,0,0,0,.25.59H927.43a3.92,3.92,0,0,0,2.77-1.15l6.3-6.3A.41.41,0,0,0,936.21,328.73Z" transform="translate(-45 -104.75)"/><path class="cls-7" d="M937.19,759.2V329.77a.43.43,0,0,0-.73-.3l-7.41,7.42V768.66a0,0,0,0,0,.08,0l7.05-7.06A3.44,3.44,0,0,0,937.19,759.2Z" transform="translate(-45 -104.75)"/><path class="cls-8" d="M261.68,410.88V458a1.12,1.12,0,0,0,1.12,1.12H415.2a1.12,1.12,0,0,0,1.12-1.12V411.34a1.12,1.12,0,0,0-1.12-1.12H262.33A.66.66,0,0,0,261.68,410.88Z" transform="translate(-45 -104.75)"/><path class="cls-2" d="M424.47,402.93l-7.68,7.69a.13.13,0,0,1-.09,0H262.44a.13.13,0,0,1-.09-.23l7.26-7.27a2.22,2.22,0,0,1,1.57-.65H424.3A.24.24,0,0,1,424.47,402.93Z" transform="translate(-45 -104.75)"/><path class="cls-7" d="M424.45,450V403.05a.41.41,0,0,0-.69-.29l-7.45,7.46v48.56a.14.14,0,0,0,.24.1l7.2-7.21A2.41,2.41,0,0,0,424.45,450Z" transform="translate(-45 -104.75)"/><path class="cls-8" d="M800,768.77H928a1.05,1.05,0,0,0,1.05-1.05V337.58a.7.7,0,0,0-.7-.7H799.27a.44.44,0,0,0-.44.44V767.59A1.18,1.18,0,0,0,800,768.77Z" transform="translate(-45 -104.75)"/><path class="cls-8" d="M261.94,565.26V653.7a1,1,0,0,0,1,1h152.6a1.06,1.06,0,0,0,1.06-1.06V565.26a.21.21,0,0,0-.21-.21H262.14A.21.21,0,0,0,261.94,565.26Z" transform="translate(-45 -104.75)"/><path class="cls-2" d="M424.84,557.65,417,565.49H262.74a.15.15,0,0,1-.11-.26l7.36-7.37a1.78,1.78,0,0,1,1.26-.52H424.71A.18.18,0,0,1,424.84,557.65Z" transform="translate(-45 -104.75)"/><path class="cls-7" d="M424.71,645.42V557.18a.12.12,0,0,0-.2-.08L416.57,565v89.47a.07.07,0,0,0,.12,0l7.24-7.24A2.69,2.69,0,0,0,424.71,645.42Z" transform="translate(-45 -104.75)"/><path class="cls-9" d="M815.11,366.51v14.08a5.18,5.18,0,0,0,5.18,5.18H907.6a5.18,5.18,0,0,0,5.18-5.18V366.51a5.18,5.18,0,0,0-5.18-5.18H820.29A5.18,5.18,0,0,0,815.11,366.51Z" transform="translate(-45 -104.75)"/><ellipse class="cls-10" cx="852.24" cy="269.11" rx="5.29" ry="5.3"/><line class="cls-10" x1="847.72" y1="273.03" x2="844.56" y2="275.6"/><path class="cls-11" d="M292.88,342.43c-1.22,0-6,.22-7,.87a21.1,21.1,0,0,0-7.09,7.36c-.62,1.09.16-.26.69-.84a6.73,6.73,0,0,1,4.6-2l.74-.05c3.79-.15,27-.32,33,0a4.27,4.27,0,0,1,3,1.36,24,24,0,0,1,3.74-5.29c.33-.33-1.31-.94-2.71-1-1.83-.12-5.39-.18-9.77-.27C307.13,342.43,299.13,342.19,292.88,342.43Z" transform="translate(-45 -104.75)"/><path class="cls-12" d="M321.18,349.11c-.81-.8,1.6-6,3.52-5.52,1,.23,2.68,2.66,3.51,4.54a18.41,18.41,0,0,1,.89,8c-.25,2.62-.6,3.39-1.81,4.8a65.8,65.8,0,0,1-6.29,5.24,10.72,10.72,0,0,0,1.74-2.75C323.48,361.55,323.4,351.28,321.18,349.11Z" transform="translate(-45 -104.75)"/><path class="cls-13" d="M277.36,355.52v4.21a8,8,0,0,0,8,8h31.13a7.79,7.79,0,0,0,8-8v-4.21a8,8,0,0,0-8-8H285.35A8,8,0,0,0,277.36,355.52Z" transform="translate(-45 -104.75)"/><text class="cls-14" transform="translate(241.96 256.13)">NU<tspan class="cls-15" x="11.73" y="0">E</tspan><tspan x="16.23" y="0">VO</tspan></text><path class="cls-13" d="M350.52,271.17l-.14-.08v10.84a8.79,8.79,0,0,1-7.83,8.74h0a.38.38,0,0,1,0,.07h0l-1,3.27-1-3.26,0-.09a8.79,8.79,0,0,1-7.72-8.73V271.09l-.14.08A17.78,17.78,0,0,0,327.26,297l0,0,0,0H338l-4,5.57a17.7,17.7,0,0,0,7.66,1.74,17.83,17.83,0,0,0,3-.25,17.62,17.62,0,0,0,4.7-1.5l-4-5.56h10.7a17.78,17.78,0,0,0-5.42-25.81Zm-10,25.81h0Zm1.92,0v0h.22Z" transform="translate(-45 -104.75)"/><line class="cls-16" x1="241.09" y1="484.74" x2="298.06" y2="484.74"/><line class="cls-16" x1="241.09" y1="501.04" x2="298.06" y2="501.04"/><line class="cls-16" x1="241.09" y1="517.34" x2="346.9" y2="517.34"/><line class="cls-16" x1="241.09" y1="533.64" x2="346.9" y2="533.64"/><path class="cls-8" d="M261.94,679.18v88.45a1,1,0,0,0,1,1h152.6a1.06,1.06,0,0,0,1.06-1.06V679.18a.21.21,0,0,0-.21-.21H262.14A.21.21,0,0,0,261.94,679.18Z" transform="translate(-45 -104.75)"/><path class="cls-2" d="M424.84,671.57,417,679.41H262.74a.15.15,0,0,1-.11-.26l7.36-7.37a1.78,1.78,0,0,1,1.26-.52H424.71A.18.18,0,0,1,424.84,671.57Z" transform="translate(-45 -104.75)"/><path class="cls-7" d="M424.71,759.34V671.1a.12.12,0,0,0-.2-.08L416.57,679v89.47a.07.07,0,0,0,.12,0l7.24-7.24A2.69,2.69,0,0,0,424.71,759.34Z" transform="translate(-45 -104.75)"/><line class="cls-16" x1="241.09" y1="598.66" x2="298.06" y2="598.66"/><line class="cls-16" x1="241.09" y1="614.96" x2="298.06" y2="614.96"/><line class="cls-16" x1="241.09" y1="631.26" x2="346.9" y2="631.26"/><line class="cls-16" x1="241.09" y1="647.56" x2="346.9" y2="647.56"/><path class="cls-8" d="M440.55,565.26V653.7a1,1,0,0,0,1,1h152.6a1.06,1.06,0,0,0,1.06-1.06V565.26A.21.21,0,0,0,595,565H440.76A.21.21,0,0,0,440.55,565.26Z" transform="translate(-45 -104.75)"/><path class="cls-2" d="M603.45,557.65l-7.83,7.83H441.35a.15.15,0,0,1-.11-.26l7.36-7.37a1.78,1.78,0,0,1,1.26-.52H603.32A.18.18,0,0,1,603.45,557.65Z" transform="translate(-45 -104.75)"/><path class="cls-7" d="M603.32,645.42V557.18a.12.12,0,0,0-.2-.08L595.18,565v89.47a.07.07,0,0,0,.12,0l7.24-7.24A2.69,2.69,0,0,0,603.32,645.42Z" transform="translate(-45 -104.75)"/><line class="cls-16" x1="419.71" y1="484.74" x2="476.68" y2="484.74"/><line class="cls-16" x1="419.71" y1="501.04" x2="476.68" y2="501.04"/><line class="cls-16" x1="419.71" y1="517.34" x2="525.51" y2="517.34"/><line class="cls-16" x1="419.71" y1="533.64" x2="525.51" y2="533.64"/><path class="cls-8" d="M440.55,679.18v88.45a1,1,0,0,0,1,1h152.6a1.06,1.06,0,0,0,1.06-1.06V679.18A.21.21,0,0,0,595,679H440.76A.21.21,0,0,0,440.55,679.18Z" transform="translate(-45 -104.75)"/><path class="cls-2" d="M603.45,671.57l-7.83,7.83H441.35a.15.15,0,0,1-.11-.26l7.36-7.37a1.78,1.78,0,0,1,1.26-.52H603.32A.18.18,0,0,1,603.45,671.57Z" transform="translate(-45 -104.75)"/><path class="cls-7" d="M603.32,759.34V671.1a.12.12,0,0,0-.2-.08L595.18,679v89.47a.07.07,0,0,0,.12,0l7.24-7.24A2.69,2.69,0,0,0,603.32,759.34Z" transform="translate(-45 -104.75)"/><line class="cls-16" x1="419.71" y1="598.66" x2="476.68" y2="598.66"/><line class="cls-16" x1="419.71" y1="614.96" x2="476.68" y2="614.96"/><line class="cls-16" x1="419.71" y1="631.26" x2="525.51" y2="631.26"/><line class="cls-16" x1="419.71" y1="647.56" x2="525.51" y2="647.56"/><path class="cls-8" d="M619.6,565.26V653.7a1,1,0,0,0,1,1h152.6a1.06,1.06,0,0,0,1.06-1.06V565.26A.21.21,0,0,0,774,565H619.81A.21.21,0,0,0,619.6,565.26Z" transform="translate(-45 -104.75)"/><path class="cls-2" d="M782.5,557.65l-7.83,7.83H620.4a.15.15,0,0,1-.11-.26l7.36-7.37a1.78,1.78,0,0,1,1.26-.52H782.37A.18.18,0,0,1,782.5,557.65Z" transform="translate(-45 -104.75)"/><path class="cls-7" d="M782.38,645.42V557.18a.12.12,0,0,0-.2-.08L774.24,565v89.47a.07.07,0,0,0,.12,0l7.24-7.24A2.69,2.69,0,0,0,782.38,645.42Z" transform="translate(-45 -104.75)"/><line class="cls-16" x1="598.76" y1="484.74" x2="655.73" y2="484.74"/><line class="cls-16" x1="598.76" y1="501.04" x2="655.73" y2="501.04"/><line class="cls-16" x1="598.76" y1="517.34" x2="704.56" y2="517.34"/><line class="cls-16" x1="598.76" y1="533.64" x2="704.56" y2="533.64"/><path class="cls-8" d="M619.6,679.18v88.45a1,1,0,0,0,1,1h152.6a1.06,1.06,0,0,0,1.06-1.06V679.18A.21.21,0,0,0,774,679H619.81A.21.21,0,0,0,619.6,679.18Z" transform="translate(-45 -104.75)"/><path class="cls-2" d="M782.5,671.57l-7.83,7.83H620.4a.15.15,0,0,1-.11-.26l7.36-7.37a1.78,1.78,0,0,1,1.26-.52H782.37A.18.18,0,0,1,782.5,671.57Z" transform="translate(-45 -104.75)"/><path class="cls-7" d="M782.38,759.34V671.1a.12.12,0,0,0-.2-.08L774.24,679v89.47a.07.07,0,0,0,.12,0l7.24-7.24A2.69,2.69,0,0,0,782.38,759.34Z" transform="translate(-45 -104.75)"/><line class="cls-16" x1="598.76" y1="598.66" x2="655.73" y2="598.66"/><line class="cls-16" x1="598.76" y1="614.96" x2="655.73" y2="614.96"/><line class="cls-16" x1="598.76" y1="631.26" x2="704.56" y2="631.26"/><line class="cls-16" x1="598.76" y1="647.56" x2="704.56" y2="647.56"/><path class="cls-17" d="M279.23,429.67l3.88,11.64a1.65,1.65,0,0,0,1.56,1.13h16.46a1.65,1.65,0,0,0,1.57-2.14L299,428.66a1.65,1.65,0,0,0-1.57-1.15H280.79A1.65,1.65,0,0,0,279.23,429.67Z" transform="translate(-45 -104.75)"/><path class="cls-7" d="M301.65,429.62a1.78,1.78,0,0,1,1.62,2l-.52,8.56s-.2-.54-.21-.56l-3.21-10Z" transform="translate(-45 -104.75)"/><path class="cls-8" d="M440.73,410.88V458a1.12,1.12,0,0,0,1.12,1.12H594.25a1.12,1.12,0,0,0,1.12-1.12V411.34a1.12,1.12,0,0,0-1.12-1.12H441.38A.66.66,0,0,0,440.73,410.88Z" transform="translate(-45 -104.75)"/><path class="cls-2" d="M603.53,402.93l-7.68,7.69a.13.13,0,0,1-.09,0H441.49a.13.13,0,0,1-.09-.23l7.26-7.27a2.22,2.22,0,0,1,1.57-.65H603.36A.24.24,0,0,1,603.53,402.93Z" transform="translate(-45 -104.75)"/><path class="cls-7" d="M603.5,450V403.05a.41.41,0,0,0-.69-.29l-7.45,7.46v48.56a.14.14,0,0,0,.24.1l7.2-7.21A2.41,2.41,0,0,0,603.5,450Z" transform="translate(-45 -104.75)"/><path class="cls-17" d="M458.28,429.67l3.88,11.64a1.65,1.65,0,0,0,1.56,1.13h16.46a1.65,1.65,0,0,0,1.57-2.14l-3.65-11.64a1.65,1.65,0,0,0-1.57-1.15H459.84A1.65,1.65,0,0,0,458.28,429.67Z" transform="translate(-45 -104.75)"/><path class="cls-7" d="M480.7,429.62a1.78,1.78,0,0,1,1.62,2l-.52,8.56s-.2-.54-.21-.56l-3.21-10Z" transform="translate(-45 -104.75)"/><path class="cls-8" d="M619.78,410.88V458a1.12,1.12,0,0,0,1.12,1.12H773.3a1.12,1.12,0,0,0,1.12-1.12V411.34a1.12,1.12,0,0,0-1.12-1.12H620.44A.66.66,0,0,0,619.78,410.88Z" transform="translate(-45 -104.75)"/><path class="cls-2" d="M782.58,402.93l-7.68,7.69a.13.13,0,0,1-.09,0H620.54a.13.13,0,0,1-.09-.23l7.26-7.27a2.22,2.22,0,0,1,1.57-.65H782.41A.24.24,0,0,1,782.58,402.93Z" transform="translate(-45 -104.75)"/><path class="cls-7" d="M782.56,450V403.05a.41.41,0,0,0-.69-.29l-7.45,7.46v48.56a.14.14,0,0,0,.24.1l7.2-7.21A2.41,2.41,0,0,0,782.56,450Z" transform="translate(-45 -104.75)"/><path class="cls-17" d="M637.33,429.67l3.88,11.64a1.65,1.65,0,0,0,1.56,1.13h16.46a1.65,1.65,0,0,0,1.57-2.14l-3.65-11.64a1.65,1.65,0,0,0-1.57-1.15H638.89A1.65,1.65,0,0,0,637.33,429.67Z" transform="translate(-45 -104.75)"/><path class="cls-7" d="M659.75,429.62a1.78,1.78,0,0,1,1.62,2l-.52,8.56s-.2-.54-.21-.56l-3.21-10Z" transform="translate(-45 -104.75)"/><path class="cls-8" d="M261.68,484.22v47.12a1.12,1.12,0,0,0,1.12,1.12H415.2a1.12,1.12,0,0,0,1.12-1.12V484.68a1.12,1.12,0,0,0-1.12-1.12H262.33A.66.66,0,0,0,261.68,484.22Z" transform="translate(-45 -104.75)"/><path class="cls-2" d="M424.47,476.27,416.79,484a.13.13,0,0,1-.09,0H262.44a.13.13,0,0,1-.09-.23l7.26-7.27a2.22,2.22,0,0,1,1.57-.65H424.3A.24.24,0,0,1,424.47,476.27Z" transform="translate(-45 -104.75)"/><path class="cls-7" d="M424.45,523.31V476.39a.41.41,0,0,0-.69-.29l-7.45,7.46v48.56a.14.14,0,0,0,.24.1l7.2-7.21A2.41,2.41,0,0,0,424.45,523.31Z" transform="translate(-45 -104.75)"/><path class="cls-17" d="M279.23,503l3.88,11.64a1.65,1.65,0,0,0,1.56,1.13h16.46a1.65,1.65,0,0,0,1.57-2.14L299,502a1.65,1.65,0,0,0-1.57-1.15H280.79A1.65,1.65,0,0,0,279.23,503Z" transform="translate(-45 -104.75)"/><path class="cls-7" d="M301.65,503a1.78,1.78,0,0,1,1.62,2l-.52,8.56s-.2-.54-.21-.56l-3.21-10Z" transform="translate(-45 -104.75)"/><path class="cls-8" d="M440.73,484.22v47.12a1.12,1.12,0,0,0,1.12,1.12H594.25a1.12,1.12,0,0,0,1.12-1.12V484.68a1.12,1.12,0,0,0-1.12-1.12H441.38A.66.66,0,0,0,440.73,484.22Z" transform="translate(-45 -104.75)"/><path class="cls-2" d="M603.53,476.27,595.84,484a.13.13,0,0,1-.09,0H441.49a.13.13,0,0,1-.09-.23l7.26-7.27a2.22,2.22,0,0,1,1.57-.65H603.36A.24.24,0,0,1,603.53,476.27Z" transform="translate(-45 -104.75)"/><path class="cls-7" d="M603.5,523.31V476.39a.41.41,0,0,0-.69-.29l-7.45,7.46v48.56a.14.14,0,0,0,.24.1l7.2-7.21A2.41,2.41,0,0,0,603.5,523.31Z" transform="translate(-45 -104.75)"/><path class="cls-17" d="M458.28,503l3.88,11.64a1.65,1.65,0,0,0,1.56,1.13h16.46a1.65,1.65,0,0,0,1.57-2.14L478.1,502a1.65,1.65,0,0,0-1.57-1.15H459.84A1.65,1.65,0,0,0,458.28,503Z" transform="translate(-45 -104.75)"/><path class="cls-7" d="M480.7,503a1.78,1.78,0,0,1,1.62,2l-.52,8.56s-.2-.54-.21-.56l-3.21-10Z" transform="translate(-45 -104.75)"/><path class="cls-8" d="M619.78,484.22v47.12a1.12,1.12,0,0,0,1.12,1.12H773.3a1.12,1.12,0,0,0,1.12-1.12V484.68a1.12,1.12,0,0,0-1.12-1.12H620.44A.66.66,0,0,0,619.78,484.22Z" transform="translate(-45 -104.75)"/><path class="cls-2" d="M782.58,476.27,774.9,484a.13.13,0,0,1-.09,0H620.54a.13.13,0,0,1-.09-.23l7.26-7.27a2.22,2.22,0,0,1,1.57-.65H782.41A.24.24,0,0,1,782.58,476.27Z" transform="translate(-45 -104.75)"/><path class="cls-7" d="M782.56,523.31V476.39a.41.41,0,0,0-.69-.29l-7.45,7.46v48.56a.14.14,0,0,0,.24.1l7.2-7.21A2.41,2.41,0,0,0,782.56,523.31Z" transform="translate(-45 -104.75)"/><path class="cls-17" d="M637.33,503l3.88,11.64a1.65,1.65,0,0,0,1.56,1.13h16.46a1.65,1.65,0,0,0,1.57-2.14L657.15,502a1.65,1.65,0,0,0-1.57-1.15H638.89A1.65,1.65,0,0,0,637.33,503Z" transform="translate(-45 -104.75)"/><path class="cls-7" d="M659.75,503a1.78,1.78,0,0,1,1.62,2l-.52,8.56s-.2-.54-.21-.56l-3.21-10Z" transform="translate(-45 -104.75)"/><ellipse class="cls-10" cx="802.67" cy="183.24" rx="16.28" ry="16.3"/><path class="cls-18" d="M846.87,275.76c-1.41.05-4,.45-5,3s-.06,6.11,0,6.45-1.36,1.53.62,3.4c0,0,.68,2.55,1.41,3.23,0,0,.51,2.66-.28,3.28s-7,3.34-7.4,4.07,6.22,5.43,11.47,5.09a17.53,17.53,0,0,0,10.32-3.7c.41-.35.52-.61.91-.94-.6-.28-7.54-3.41-8.24-4.53s-.11-2.94-.11-3.28a5.25,5.25,0,0,0,1.3-3.34,2.21,2.21,0,0,0,.85-3.17s1.53-4.47.28-6.39a4.27,4.27,0,0,0-3.05-2S849.87,275.65,846.87,275.76Z" transform="translate(-45 -104.75)"/><text class="cls-19" transform="translate(1250.16 45.05)">MIS<tspan x="0" y="63.6">EXPEDIENTES</tspan></text><text class="cls-20" transform="translate(1249.21 160.63)"><tspan class="cls-21">A</tspan><tspan class="cls-22" x="22.95" y="0">cc</tspan><tspan x="56.31" y="0">eda a sus </tspan><tspan class="cls-23" x="203.28" y="0">e</tspan><tspan x="219.9" y="0">xpedien</tspan><tspan class="cls-22" x="337.5" y="0">t</tspan><tspan x="349.05" y="0">es </tspan><tspan x="0" y="36">y</tspan><tspan class="cls-24" x="17.64" y="36"> </tspan><tspan class="cls-25" x="26.64" y="36">o</tspan><tspan class="cls-26" x="45.84" y="36">r</tspan><tspan class="cls-25" x="57.09" y="36">ganízalos</tspan><tspan class="cls-27" x="195.39" y="36"> </tspan><tspan x="204.39" y="36">por carpetas </tspan><tspan x="0" y="72">pa</tspan><tspan class="cls-21" x="37.02" y="72">r</tspan><tspan x="48.27" y="72">a mejo</tspan><tspan class="cls-21" x="147.21" y="72">r</tspan><tspan x="158.46" y="72">ar la ge</tspan><tspan class="cls-28" x="267.69" y="72">s</tspan><tspan x="282.3" y="72">tión </tspan><tspan x="0" y="108">documental. </tspan><tspan class="cls-21" x="0" y="180">A</tspan><tspan x="22.95" y="180">demás, c</tspan><tspan class="cls-21" x="153.96" y="180">r</tspan><tspan x="165.21" y="180">ee </tspan><tspan class="cls-25" x="209.25" y="180">nu</tspan><tspan class="cls-26" x="246.03" y="180">e</tspan><tspan class="cls-29" x="262.8" y="180">v</tspan><tspan class="cls-25" x="279.36" y="180">os </tspan><tspan class="cls-29" x="0" y="216">e</tspan><tspan class="cls-25" x="16.62" y="216">xpedien</tspan><tspan class="cls-30" x="134.22" y="216">t</tspan><tspan class="cls-25" x="145.77" y="216">es</tspan><tspan class="cls-27" x="178.2" y="216"> </tspan><tspan x="187.2" y="216">pa</tspan><tspan class="cls-31" x="224.22" y="216">r</tspan><tspan x="235.47" y="216">a ll</tspan><tspan class="cls-21" x="276.63" y="216">ev</tspan><tspan x="310.11" y="216">ar un </tspan><tspan x="0" y="252">seguimien</tspan><tspan class="cls-22" x="150" y="252">t</tspan><tspan x="161.55" y="252">o de los casos.</tspan></text><polyline class="cls-32" points="715.8 656.05 796.64 813.06 973.47 813.06"/><circle class="cls-33" cx="760.35" cy="760.07" r="2.41" transform="translate(-296.52 1018.59) rotate(-64.74)"/><circle class="cls-33" cx="267.52" cy="524.08" r="2.41" transform="translate(-365.6 437.6) rotate(-64.74)"/><circle class="cls-33" cx="321.53" cy="349.27" r="2.41" transform="translate(-176.55 386.25) rotate(-64.74)"/><circle class="cls-33" cx="910.35" cy="381.7" r="2.41" transform="translate(131.66 937.34) rotate(-64.74)"/><text class="cls-34" transform="translate(806.22 804.31)">EXPEDIENTES</text><path class="cls-32" d="M910.58,382.72c1.51-2.08,44.81,89.58,44.81,89.58H1100" transform="translate(-45 -104.75)"/><polyline class="cls-32" points="222.52 419.32 130.92 496.93 1.54 496.93"/><polyline class="cls-32" points="276.53 244.52 401.69 50.93 516.13 50.93"/><text class="cls-34" transform="translate(916.4 359.32)">BUSCADOR</text><text class="cls-34" transform="translate(406.89 42.21)">CREE</text><text class="cls-34" transform="translate(0 487.69)">CARPE<tspan class="cls-35" x="82.55" y="0">T</tspan><tspan class="cls-36" x="95.38" y="0">A</tspan><tspan x="113.2" y="0">S</tspan></text><text class="cls-37" transform="translate(2.59 524.56)">O<tspan class="cls-38" x="17" y="0">r</tspan><tspan x="24.5" y="0">gani</tspan><tspan class="cls-39" x="66.42" y="0">c</tspan><tspan x="77.54" y="0">e por </tspan><tspan x="0" y="24">carpetas sus </tspan><tspan class="cls-40" x="0" y="48">e</tspan><tspan x="11.08" y="48">xpedien</tspan><tspan class="cls-39" x="89.48" y="48">t</tspan><tspan x="97.18" y="48">es.</tspan></text><text class="cls-37" transform="translate(809.52 839.57)"><tspan class="cls-41">V</tspan><tspan x="14.6" y="0">isuali</tspan><tspan class="cls-39" x="63.22" y="0">c</tspan><tspan x="74.34" y="0">e los </tspan><tspan class="cls-23" x="0" y="24">e</tspan><tspan x="11.08" y="24">xpedien</tspan><tspan class="cls-42" x="89.48" y="24">t</tspan><tspan x="97.18" y="24">es </tspan><tspan x="0" y="48">c</tspan><tspan class="cls-38" x="11.42" y="48">r</tspan><tspan x="18.92" y="48">eados</tspan><tspan class="cls-43" x="78.02" y="48">.</tspan></text><text class="cls-37" transform="translate(917.71 396.88)">Filt<tspan class="cls-38" x="31.08" y="0">r</tspan><tspan x="38.58" y="0">e por </tspan><tspan class="cls-28" x="0" y="24">f</tspan><tspan x="7.04" y="24">echa, au</tspan><tspan class="cls-39" x="88.22" y="24">t</tspan><tspan x="95.92" y="24">o</tspan><tspan class="cls-44" x="108.72" y="24">r</tspan><tspan x="114.92" y="24">, </tspan><tspan x="0" y="48">lugar de </tspan><tspan x="0" y="72">de</tspan><tspan class="cls-39" x="24.88" y="72">t</tspan><tspan x="32.58" y="72">e</tspan><tspan class="cls-39" x="44.26" y="72">c</tspan><tspan x="55.38" y="72">ción, </tspan><tspan x="0" y="96">etnia, tipo de </tspan><tspan x="0" y="120">mutilación, e</tspan><tspan class="cls-39" x="124.46" y="120">t</tspan><tspan x="132.16" y="120">c.</tspan></text><text class="cls-37" transform="translate(407.86 75.82)">C<tspan class="cls-38" x="14.76" y="0">r</tspan><tspan x="22.26" y="0">ee nu</tspan><tspan class="cls-45" x="76.14" y="0">ev</tspan><tspan x="98.46" y="0">as </tspan><tspan x="0" y="24">carpetas y </tspan><tspan class="cls-40" x="0" y="48">e</tspan><tspan x="11.08" y="48">xpedien</tspan><tspan class="cls-39" x="89.48" y="48">t</tspan><tspan x="97.18" y="48">es.</tspan></text></svg>